<?xml version="1.0" encoding="utf-8"?>
<!-- Generator: Adobe Illustrator 28.0.0, SVG Export Plug-In . SVG Version: 6.00 Build 0)  -->
<svg version="1.1" id="Layer_1" xmlns="http://www.w3.org/2000/svg" xmlns:xlink="http://www.w3.org/1999/xlink" x="0px" y="0px"
	 viewBox="0 0 330 300" style="enable-background:new 0 0 330 300;" xml:space="preserve">
<style type="text/css">
	.st0{display:none;}
	.st1{display:inline;}
	.st2{fill:none;stroke:#000000;stroke-width:60;stroke-miterlimit:10;}
	.st3{fill-rule:evenodd;clip-rule:evenodd;fill:#FFFFFF;}
</style>
<g id="Layer_1_00000014623927370700487500000011828005389440377254_" class="st0">
	<g class="st1">
		<line class="st2" x1="27" y1="86.1" x2="300" y2="86.1"/>
	</g>
	<g class="st1">
		<line class="st2" x1="27.5" y1="198.1" x2="300.5" y2="198.1"/>
	</g>
	<g class="st1">
		<line class="st2" x1="27.5" y1="310.1" x2="300.5" y2="310.1"/>
	</g>
</g>
<path class="st3" d="M300.1,87.5H29.9c-11.1,0-20.2-9-20.2-20.2l0,0c0-11.1,9-20.2,20.2-20.2H300c11.1,0,20.2,9,20.2,20.2l0,0
	C320.2,78.4,311.2,87.5,300.1,87.5z"/>
<path class="st3" d="M300.1,177.3H29.9c-11.1,0-20.2-9-20.2-20.2l0,0c0-11.1,9-20.2,20.2-20.2H300c11.1,0,20.2,9,20.2,20.2l0,0
	C320.2,168.2,311.2,177.3,300.1,177.3z"/>
<path class="st3" d="M301.9,267.1H31.7c-11.1,0-20.2-9-20.2-20.2l0,0c0-11.1,9-20.2,20.2-20.2h270.1c11.1,0,20.2,9,20.2,20.2l0,0
	C322,258.1,313,267.1,301.9,267.1z"/>
</svg>
