<?xml version="1.0" encoding="utf-8"?>
<!-- Generator: Adobe Illustrator 28.0.0, SVG Export Plug-In . SVG Version: 6.00 Build 0)  -->
<svg version="1.1" id="Layer_1" xmlns="http://www.w3.org/2000/svg" xmlns:xlink="http://www.w3.org/1999/xlink" x="0px" y="0px"
	 viewBox="0 0 320 320" style="enable-background:new 0 0 320 320;" xml:space="preserve">
<style type="text/css">
	.st0{display:none;}
	.st1{display:inline;}
	.st2{fill:none;stroke:#000000;stroke-width:60;stroke-miterlimit:10;}
	.st3{fill-rule:evenodd;clip-rule:evenodd;fill:#FFBD59;}
</style>
<g id="Layer_1_00000037664866119682404510000018374224016006650016_" class="st0">
	<g class="st1">
		<line class="st2" x1="20.5" y1="48.5" x2="293.5" y2="48.5"/>
	</g>
	<g class="st1">
		<line class="st2" x1="21" y1="160.5" x2="294" y2="160.5"/>
	</g>
	<g class="st1">
		<line class="st2" x1="21" y1="272.5" x2="294" y2="272.5"/>
	</g>
</g>
<g>
	<path class="st3" d="M263.1,98.8L98.3,263.6c-11.7,11.7-30.7,11.7-42.4,0l0,0c-11.7-11.7-11.7-30.7,0-42.4L220.7,56.4
		c11.7-11.7,30.7-11.7,42.4,0l0,0C274.8,68.1,274.8,87.1,263.1,98.8z"/>
	<path class="st3" d="M220.7,263.6L55.9,98.8c-11.7-11.7-11.7-30.7,0-42.4l0,0c11.7-11.7,30.7-11.7,42.4,0l164.8,164.8
		c11.7,11.7,11.7,30.7,0,42.4l0,0C251.4,275.3,232.4,275.3,220.7,263.6z"/>
</g>
</svg>
